<svg width="40" height="40" viewBox="0 0 40 40" fill="none" xmlns="http://www.w3.org/2000/svg">
<path d="M20 40C31.0457 40 40 31.0457 40 20C40 8.9543 31.0457 0 20 0C8.9543 0 0 8.9543 0 20C0 31.0457 8.9543 40 20 40Z" fill="#F3F2F2"/>
<path d="M29.3169 16.6385C28.4848 16.6385 27.8267 16.8592 27.3233 16.9599L27.1686 18.225C27.4202 18.104 28.2139 17.8839 28.872 17.8631C29.5305 17.8432 29.9173 17.9837 29.7818 18.5461C27.827 18.5461 26.5104 18.9472 26.2395 20.2123C25.852 22.381 28.2332 22.321 29.1818 21.377L29.0659 21.8987H30.8079L31.5627 18.4448C31.8717 16.9795 30.5365 16.6185 29.3169 16.6385ZM29.4332 20.1722C29.3365 20.6339 28.969 20.8348 28.5237 20.8553C28.1365 20.8752 27.7881 20.5331 28.0399 20.1318C28.2335 19.7908 28.7757 19.7105 29.1044 19.7105C29.2399 19.7105 29.3949 19.7105 29.5307 19.7105C29.4912 19.871 29.4716 20.0115 29.4332 20.1722Z" fill="#1A80AD"/>
<path d="M33.0546 15.2734L31.6133 21.8995H33.3827L34.842 15.2734H33.0546Z" fill="#1A80AD"/>
<path d="M24.9235 15.2939H21.6837L20.248 21.8998H22.1295L22.6149 19.7114H23.9533C25.2727 19.7114 26.3591 18.9083 26.65 17.5428C26.98 15.9967 25.8547 15.2939 24.9235 15.2939ZM24.866 17.5428C24.7495 18.0446 24.2448 18.4459 23.7595 18.4459H22.8866L23.2748 16.6389H24.2058C24.6911 16.6393 24.9819 17.0407 24.866 17.5428Z" fill="#1A80AD"/>
<path d="M12.3518 16.6385C11.5294 16.6385 10.8792 16.8592 10.4007 16.9599L10.2485 18.2247C10.478 18.1038 11.2618 17.8837 11.9121 17.8628C12.5623 17.8429 12.9448 17.9834 12.8296 18.5459C10.8988 18.5459 9.5986 18.9469 9.3308 20.2121C8.94805 22.3807 11.2998 22.3207 12.2178 21.3768L12.1035 21.8985H13.8435L14.5891 18.4445C14.8946 16.9795 13.556 16.6185 12.3518 16.6385ZM12.4857 20.1722C12.3898 20.6339 12.0069 20.8348 11.568 20.8553C11.1855 20.8752 10.8603 20.5331 11.1091 20.1318C11.2998 19.7908 11.8354 19.7105 12.1414 19.7105C12.2946 19.7105 12.4282 19.7105 12.5817 19.7105C12.5425 19.871 12.5046 20.0115 12.4857 20.1722Z" fill="#1A5B80"/>
<path d="M15.346 16.7334H17.086L17.3668 19.8097L19.069 16.7334H20.8646L16.7305 24.0957H14.7852L16.0565 21.9315L15.346 16.7334Z" fill="#1A5B80"/>
<path d="M8.0237 15.293H4.77536L3.33594 21.8989H5.24209L5.70881 19.7104H7.07025C8.37354 19.7104 9.46279 18.9074 9.75455 17.5418C10.0852 15.9957 8.97682 15.293 8.0237 15.293ZM7.9653 17.5418C7.84874 18.0436 7.36278 18.4449 6.87613 18.4449H5.9815L6.39016 16.6379H7.3237C7.79034 16.6383 8.10143 17.0397 7.9653 17.5418Z" fill="#1A5B80"/>
<path d="M35.2232 16.1296V15.348H34.9316V15.2432H35.634V15.348H35.341V16.1296H35.2232Z" fill="#1A5B80"/>
<path d="M35.75 16.1296V15.2432H35.9259L36.1359 15.8703C36.1554 15.9287 36.169 15.972 36.1782 16.0007C36.1883 15.9688 36.2041 15.9215 36.2249 15.8593L36.4381 15.2432H36.5957V16.1296H36.4829V15.3875L36.2246 16.1296H36.1194L35.8627 15.3752V16.1296H35.75Z" fill="#1A5B80"/>
</svg>
