<svg width="20" height="20" viewBox="0 0 20 20" fill="none" xmlns="http://www.w3.org/2000/svg">
<g clip-path="url(#clip0)">
<path d="M10 20C15.5228 20 20 15.5229 20 10C20 4.47715 15.5228 3.91412e-07 10 8.74228e-07C4.47722 1.35704e-06 -1.35705e-06 4.47715 -8.74228e-07 10C-3.91405e-07 15.5229 4.47723 20 10 20ZM6.54375 9.46992L11.5437 6.34492C11.6449 6.28176 11.76 6.25 11.875 6.25C11.9792 6.25 12.0836 6.27594 12.178 6.32844C12.3767 6.43859 12.5 6.64766 12.5 6.875L12.5 13.125C12.5 13.3523 12.3767 13.5614 12.178 13.6716C11.9794 13.7823 11.7364 13.7756 11.5437 13.6551L6.54375 10.5301C6.36109 10.4156 6.25 10.2154 6.25 10C6.25 9.78457 6.36109 9.58434 6.54375 9.46992Z" fill="white"/>
</g>
<defs>
<clipPath id="clip0">
<rect width="20" height="20" fill="white" transform="translate(20 20) rotate(180)"/>
</clipPath>
</defs>
</svg>
