<svg width="40" height="40" viewBox="0 0 40 40" fill="none" xmlns="http://www.w3.org/2000/svg">
<path d="M40 20C40 20.2466 39.9959 20.4923 39.9861 20.7371C39.9477 21.8048 39.8253 22.8514 39.6253 23.8702C39.4637 24.6971 39.2506 25.5052 38.9902 26.2914C38.8662 26.6677 38.7306 27.0384 38.5845 27.4041C35.6416 34.7845 28.4302 40 20 40C8.9543 40 0 31.0457 0 20C0 19.7723 0.0040625 19.5453 0.0114063 19.3192C0.0220313 19.0016 0.04 18.6866 0.0653125 18.3739C0.0840625 18.1388 0.106953 17.9053 0.133906 17.6735C0.337969 15.9143 0.769844 14.2254 1.39922 12.6359C4.33227 5.2343 11.5543 0 20 0C31.0457 0 40 8.9543 40 20Z" fill="#1C82C8"/>
<path d="M1.93164 16.2809H3.41687L2.6743 14.3906L1.93164 16.2809Z" fill="#F0EFEB"/>
<path d="M34.8084 12.6357V13.4464L34.4035 12.6357H31.2305V13.4464L30.8255 12.6357H26.5048C25.7619 12.6357 25.1545 12.7713 24.6141 13.0407V12.6357H21.5766V13.0407C21.2386 12.7713 20.8337 12.6357 20.2941 12.6357H9.42477L8.68273 14.3239L7.93984 12.6357H4.49664V13.4464L4.09172 12.6357H1.39953C0.770078 14.2251 0.338281 15.9141 0.134219 17.6732L1.86398 13.581H3.55133L5.44195 18.1043V13.5811H7.26484L8.74977 16.8211L10.1 13.5811H11.9906V18.3068H10.8429V14.5933L9.2225 18.3068H8.21023L6.58984 14.5933V18.3068H4.29422L3.82156 17.2937H1.52688L1.12117 18.3737H0.065625C0.0403125 18.6864 0.0223438 19.0014 0.0117188 19.319H1.7293L2.13422 18.239H3.07953L3.48445 19.319H7.39953V18.5092L7.7375 19.3189H9.69508L10.033 18.5092V19.3189H19.4167V17.5639H19.5514C19.6861 17.5639 19.6861 17.5639 19.6861 17.7663V19.252H24.5473V18.8463C24.9523 19.0487 25.5596 19.252 26.3702 19.252H28.3947L28.8004 18.1712H29.7448L30.1505 19.252H34.0656V18.2389L34.673 19.252H37.846V12.6357H34.8084ZM16.5807 14.5932H13.948V15.4708H16.5138V16.4161H13.948V17.3614H16.5807V18.3737H12.8003V13.5811H16.5807V14.5932ZM21.8469 18.3737H20.6991V17.7664C20.6991 17.4961 20.6991 17.0913 20.4967 16.8211C20.2943 16.6186 20.0918 16.6186 19.6861 16.6186H18.4714V18.3737H17.3237V13.5811H19.8886C20.4968 13.5811 20.9016 13.5811 21.2388 13.7835C21.5768 13.9859 21.7792 14.3239 21.7792 14.8635C21.7792 15.6064 21.3066 16.0112 20.9695 16.1459C21.3066 16.2136 21.5091 16.4161 21.6445 16.5516C21.7792 16.821 21.847 17.0243 21.847 17.4292L21.8469 18.3737ZM23.6697 18.3068H22.522V13.5133H23.6697V18.3068ZM36.8337 18.3068H35.348L33.188 14.7288V18.3068H30.8925L30.4876 17.2937H28.1252L27.7202 18.3737H26.437C25.8974 18.3737 25.2223 18.239 24.8166 17.8341C24.4117 17.4292 24.2093 16.8888 24.2093 16.0112C24.2093 15.3361 24.3448 14.661 24.8166 14.1206C25.1546 13.7157 25.762 13.581 26.5048 13.581H27.5848V14.5932H26.5048C26.0998 14.5932 25.8974 14.661 25.6272 14.8635C25.4248 15.0659 25.2892 15.4708 25.2892 15.9435C25.2892 16.4839 25.357 16.8211 25.6272 17.0912C25.8296 17.2936 26.0998 17.3614 26.437 17.3614H26.9096L28.4623 13.6488H30.1504L32.0402 18.1712V13.6488H33.7283L35.6859 16.9565V13.6488H36.8336V18.3068H36.8337Z" fill="#F0EFEB"/>
<path d="M9.83008 22.627V23.5046H12.328V24.4497H9.83008V25.4623H12.598L13.8806 24.0447L12.6655 22.627H9.83008Z" fill="#F0EFEB"/>
<path d="M37.7116 22.6939C37.5091 22.6939 37.3736 22.6939 37.2389 22.7616C37.1042 22.8294 37.1042 22.9641 37.1042 23.0987C37.1042 23.3012 37.1712 23.369 37.3736 23.4367C37.5091 23.5045 37.6438 23.5045 37.7793 23.5045H38.3866C38.9622 23.5045 39.3564 23.6252 39.6259 23.8694C39.8259 22.8506 39.9483 21.8041 39.9866 20.7363H37.6438C37.0364 20.7363 36.5638 20.871 36.2266 21.1413V20.7363H33.1206C32.6479 20.7363 32.0406 20.871 31.7703 21.1413V20.7363H26.3026V21.1413C25.8977 20.8041 25.1548 20.7363 24.8169 20.7363H21.172V21.1413C20.834 20.8041 20.0242 20.7363 19.6193 20.7363H15.5687L14.6234 21.7486L13.7458 20.7363H7.66992V27.3519H13.6112L14.5556 26.3396L15.4332 27.3519H19.0789V25.7992H19.5516C20.0242 25.7992 20.6316 25.7992 21.1042 25.5968V27.4197H24.1418V25.6646H24.2773C24.4798 25.6646 24.4798 25.6646 24.4798 25.867V27.4197H33.661C34.2684 27.4197 34.8766 27.285 35.2137 27.0148V27.4197H38.1166C38.2741 27.4197 38.4316 27.4148 38.5852 27.4034C38.7313 27.0377 38.8668 26.667 38.9909 26.2907C38.7656 26.3641 38.4962 26.4074 38.1843 26.4074H36.0235V25.3944H38.1843C38.3867 25.3944 38.5214 25.3944 38.657 25.2597C38.7239 25.192 38.7916 25.0573 38.7916 24.9217C38.7916 24.787 38.7239 24.6515 38.657 24.5846C38.5892 24.5169 38.4545 24.4491 38.2513 24.4491C37.1713 24.3821 35.8888 24.4491 35.8888 22.9641C35.8888 22.2891 36.2938 21.5462 37.5092 21.5462H39.737V22.6939H37.7116ZM19.5516 24.8548H18.2013V26.4744H16.0413L14.6911 24.9217L13.2731 26.4744H8.81758V21.6817H13.3409L14.6911 23.2344L16.1082 21.6817H19.6862C20.5638 21.6817 21.5768 21.952 21.5768 23.2344C21.5091 24.5845 20.5638 24.8548 19.5516 24.8548ZM26.3026 24.5845C26.4373 24.7869 26.505 25.0572 26.505 25.4621V26.4074H25.3573V25.7992C25.3573 25.5298 25.3573 25.0572 25.1548 24.8548C25.0202 24.6515 24.7499 24.6515 24.3451 24.6515H23.1295V26.4074H21.9818V21.614H24.5475C25.0871 21.614 25.5598 21.614 25.8977 21.8164C26.2348 22.0188 26.5051 22.3568 26.5051 22.8964C26.5051 23.6393 26.0324 24.0441 25.6953 24.1797C26.0324 24.3143 26.2348 24.449 26.3026 24.5845ZM30.9606 22.6262H28.3279V23.5045H30.8928V24.449H28.3279V25.3943H30.9606V26.4073H27.1802V21.6139H30.9606V22.6262ZM33.7956 26.4073H31.6356V25.3943H33.7956C33.9981 25.3943 34.1336 25.3943 34.2683 25.2596C34.336 25.1919 34.4038 25.0572 34.4038 24.9216C34.4038 24.7869 34.3361 24.6514 34.2683 24.5845C34.2013 24.5168 34.0659 24.449 33.8634 24.449C32.7834 24.382 31.5009 24.449 31.5009 22.9641C31.5009 22.289 31.9059 21.5461 33.1206 21.5461H35.3483V22.6938H33.256C33.0536 22.6938 32.9181 22.6938 32.7834 22.7616C32.6478 22.8293 32.6478 22.964 32.6478 23.0987C32.6478 23.3011 32.7834 23.3689 32.9181 23.4366C33.0536 23.5044 33.1883 23.5044 33.323 23.5044H33.9311C34.5384 23.5044 34.9434 23.6391 35.2135 23.9093C35.4159 24.1117 35.5515 24.4489 35.5515 24.9216C35.5516 25.9348 34.9434 26.4073 33.7956 26.4073Z" fill="#F0EFEB"/>
<path d="M20.361 15.6064C20.496 15.5389 20.5635 15.3363 20.5635 15.1338C20.631 14.8638 20.496 14.7287 20.361 14.6612C20.226 14.5937 20.0234 14.5938 19.8209 14.5938H18.4707V15.6739H19.8209C20.0234 15.6739 20.2259 15.6739 20.361 15.6064Z" fill="#F0EFEB"/>
<path d="M29.3414 14.3906L28.5312 16.2809H30.084L29.3414 14.3906Z" fill="#F0EFEB"/>
<path d="M17.0541 26.0023V22.1543L15.2988 24.0446L17.0541 26.0023Z" fill="#F0EFEB"/>
<path d="M19.6189 22.627H18.2012V23.8421H19.6864C20.0915 23.8421 20.3615 23.6396 20.3615 23.2345C20.294 22.8295 20.024 22.627 19.6189 22.627Z" fill="#F0EFEB"/>
<path d="M25.0876 22.7618C24.9526 22.6943 24.75 22.6943 24.5475 22.6943H23.1973V23.7745H24.5475C24.75 23.7745 24.9526 23.7745 25.0876 23.707C25.2226 23.6395 25.2901 23.4369 25.2901 23.2344C25.3576 22.9644 25.2226 22.8293 25.0876 22.7618Z" fill="#F0EFEB"/>
</svg>
