<svg width="40" height="40" viewBox="0 0 40 40" fill="none" xmlns="http://www.w3.org/2000/svg">
<path d="M20 40C31.0457 40 40 31.0457 40 20C40 8.9543 31.0457 0 20 0C8.9543 0 0 8.9543 0 20C0 31.0457 8.9543 40 20 40Z" fill="#F3F2F2"/>
<path d="M21.2956 21.3901C22.749 21.3901 23.9272 20.2119 23.9272 18.7585C23.9272 17.3051 22.749 16.127 21.2956 16.127C19.8422 16.127 18.6641 17.3051 18.6641 18.7585C18.6641 20.2119 19.8422 21.3901 21.2956 21.3901Z" fill="#F26E21"/>
<path d="M7.12364 20.0196C6.81356 20.2972 6.41343 20.4176 5.77799 20.4176H5.51433V17.1137H5.77799C6.41334 17.1137 6.7977 17.2261 7.12364 17.5179C7.46343 17.8176 7.66616 18.2815 7.66616 18.7609C7.66616 19.2405 7.46343 19.7208 7.12364 20.0196ZM5.97506 16.2676H4.53125V21.2629H5.9678C6.73018 21.2629 7.28122 21.0841 7.76474 20.6863C8.33823 20.2145 8.67869 19.503 8.67869 18.7675C8.67861 17.2927 7.56767 16.2676 5.97506 16.2676Z" fill="#0B161F"/>
<path d="M9.13086 21.2629H10.1124V16.2676H9.13086V21.2629Z" fill="#0B161F"/>
<path d="M12.5163 18.184C11.9263 17.967 11.7526 17.8243 11.7526 17.5559C11.7526 17.241 12.0618 17.0013 12.4853 17.0013C12.7799 17.0013 13.0212 17.121 13.2792 17.4049L13.7918 16.7392C13.3693 16.3716 12.8633 16.1846 12.3114 16.1846C11.4208 16.1846 10.7405 16.7988 10.7405 17.6142C10.7405 18.3042 11.0573 18.656 11.9794 18.9864C12.3647 19.1206 12.5605 19.2099 12.659 19.2709C12.8551 19.3985 12.954 19.5775 12.954 19.7872C12.954 20.1924 12.629 20.4914 12.1903 20.4914C11.722 20.4914 11.3447 20.2597 11.1179 19.8251L10.4844 20.4324C10.9366 21.0905 11.4805 21.3839 12.2288 21.3839C13.2482 21.3839 13.9654 20.7087 13.9654 19.743C13.9658 18.9485 13.6342 18.5888 12.5163 18.184Z" fill="#0B161F"/>
<path d="M14.2754 18.7672C14.2754 20.2369 15.4388 21.3754 16.9345 21.3754C17.3576 21.3754 17.7195 21.2923 18.1658 21.0839V19.9366C17.7726 20.3266 17.4249 20.4836 16.9793 20.4836C15.9899 20.4836 15.2872 19.7718 15.2872 18.7603C15.2872 17.8018 16.0123 17.0449 16.9345 17.0449C17.4019 17.0449 17.7574 17.2094 18.1658 17.6067V16.4603C17.7357 16.2437 17.3797 16.1543 16.9566 16.1543C15.469 16.1546 14.2754 17.3158 14.2754 18.7672Z" fill="#0B161F"/>
<path d="M26.1262 19.623L24.7814 16.2676H23.709L25.8473 21.3908H26.3753L28.5512 16.2676H27.486L26.1262 19.623Z" fill="#0B161F"/>
<path d="M28.998 21.2629H31.7846V20.4176H29.9799V19.0679H31.7155V18.2224H29.9799V17.1136H31.7846V16.2676H28.998V21.2629Z" fill="#0B161F"/>
<path d="M33.7005 18.5669H33.4144V17.053H33.7159C34.3289 17.053 34.6615 17.3088 34.6615 17.7948C34.6615 18.2963 34.3289 18.5669 33.7005 18.5669ZM35.6717 17.7418C35.6717 16.806 35.0228 16.2676 33.889 16.2676H32.4316V21.2629H33.4141V19.2554H33.543L34.9016 21.2629H36.1102L34.5233 19.1584C35.2647 19.0088 35.6717 18.5063 35.6717 17.7418Z" fill="#0B161F"/>
<path d="M11.6973 25.905V23.0947L13.6161 25.1022V23.2734H14.0133V26.0651L12.0945 24.0623V25.9046H11.6973V25.905Z" fill="black"/>
<path d="M16.0966 23.6464H15.0415V24.2786H16.066V24.6522H15.0415V25.5314H16.0966V25.9047H14.6445V23.2734H16.0966V23.6464Z" fill="black"/>
<path d="M17.3457 23.6467V25.9047H16.9485V23.6467H16.3438V23.2734H17.9493V23.6467H17.3457Z" fill="black"/>
<path d="M18.5893 23.2734L19.2746 25.0321L19.9908 23.1455L20.6758 25.0321L21.4034 23.2734H21.8348L20.6588 26.0717L19.982 24.2072L19.2765 26.0736L18.1582 23.2735L18.5893 23.2734Z" fill="black"/>
<path d="M21.9102 24.5779C21.9102 24.2071 22.0463 23.8891 22.3175 23.6235C22.5879 23.3575 22.9132 23.2246 23.2928 23.2246C23.6676 23.2246 23.9892 23.3586 24.2572 23.6266C24.5266 23.8951 24.6608 24.2168 24.6608 24.5933C24.6608 24.9713 24.5257 25.2925 24.2556 25.5562C23.984 25.8209 23.6562 25.9535 23.2722 25.9535C22.9327 25.9535 22.6273 25.8357 22.357 25.6007C22.0592 25.3402 21.9102 24.9992 21.9102 24.5779ZM22.3109 24.582C22.3109 24.8725 22.4088 25.1113 22.6039 25.2989C22.7981 25.4865 23.0227 25.5799 23.2775 25.5799C23.5532 25.5799 23.7863 25.4846 23.9761 25.2942C24.1659 25.1012 24.2606 24.8663 24.2606 24.5893C24.2606 24.3085 24.1668 24.0736 23.9792 23.8844C23.7928 23.6936 23.5623 23.5982 23.2873 23.5982C23.0135 23.5982 22.7823 23.6936 22.5941 23.8844C22.4053 24.072 22.3109 24.305 22.3109 24.582Z" fill="black"/>
<path d="M26.0516 24.7832L26.8664 25.9047H26.3806L25.6291 24.8278H25.5574V25.9047H25.1602V23.2734H25.6254C25.9733 23.2734 26.2241 23.3388 26.3789 23.4696C26.5494 23.6148 26.6347 23.8068 26.6347 24.0456C26.6347 24.232 26.5813 24.3921 26.4742 24.5259C26.3673 24.6598 26.2268 24.7459 26.0516 24.7832ZM25.5576 24.4816H25.6833C26.0593 24.4816 26.2476 24.3379 26.2476 24.0505C26.2476 23.7811 26.0647 23.6466 25.6988 23.6466H25.5576V24.4816Z" fill="black"/>
<path d="M27.6589 24.3232L28.6831 23.2734H29.2133L28.0237 24.465L29.2203 25.9047H28.6885L27.7408 24.734L27.659 24.8162V25.9047H27.2617V23.2735H27.659V24.3232H27.6589Z" fill="black"/>
<path d="M39.937 21.5C36.1756 26.2641 27.4446 34.4949 11.918 38.2943C14.3894 39.3876 17.1217 39.9993 19.9981 39.9993C30.5386 39.9992 39.1687 31.8437 39.937 21.5Z" fill="#F26E21"/>
</svg>
