<svg width="25" height="25" viewBox="0 0 25 25" fill="none" xmlns="http://www.w3.org/2000/svg">
<path d="M19.907 9.31157V6.71296C19.907 3.01157 16.5839 0 12.4996 0C8.41538 0 5.09223 3.01157 5.09223 6.71296V9.31157C3.51769 9.58287 2.31445 10.9551 2.31445 12.6065V21.6537C2.31445 23.4986 3.81584 25 5.66121 25H19.3381C21.1834 25 22.6848 23.4986 22.6848 21.6532V12.606C22.6848 10.9551 21.4816 9.58287 19.907 9.31157ZM6.01816 6.71296C6.01816 3.52176 8.92556 0.925926 12.4996 0.925926C16.0737 0.925926 18.9811 3.52176 18.9811 6.71296V9.25926H6.01816V6.71296ZM21.7589 21.6532C21.7589 22.988 20.6728 24.0741 19.3381 24.0741H5.66121C4.32649 24.0741 3.24038 22.988 3.24038 21.6532V12.606C3.24038 11.2713 4.32649 10.1852 5.66121 10.1852H19.3381C20.6728 10.1852 21.7589 11.2713 21.7589 12.606V21.6532Z" fill="#8CC63F"/>
<path d="M12.5003 12.9629C11.479 12.9629 10.6484 13.7934 10.6484 14.8147V17.5925C10.6484 18.6138 11.479 19.4444 12.5003 19.4444C13.5216 19.4444 14.3521 18.6138 14.3521 17.5925V14.8147C14.3521 13.7934 13.5216 12.9629 12.5003 12.9629ZM13.4262 17.5925C13.4262 18.1032 13.0109 18.5184 12.5003 18.5184C11.9896 18.5184 11.5744 18.1032 11.5744 17.5925V14.8147C11.5744 14.3041 11.9896 13.8888 12.5003 13.8888C13.0109 13.8888 13.4262 14.3041 13.4262 14.8147V17.5925Z" fill="#8CC63F"/>
</svg>
