<svg width="40" height="40" viewBox="0 0 40 40" fill="none" xmlns="http://www.w3.org/2000/svg">
<path d="M19.9992 39.9993C31.0444 39.9993 39.9983 31.0454 39.9983 20.0001C39.9983 8.9549 31.0444 0.000976562 19.9992 0.000976562C8.95393 0.000976562 0 8.9549 0 20.0001C0 31.0454 8.95393 39.9993 19.9992 39.9993Z" fill="#F3F2F2"/>
<path d="M14.8086 23.8373L16.3389 14.8008H18.8165L17.2863 23.8373H14.8086Z" fill="#293688"/>
<path d="M26.108 15.0345C25.617 14.8514 24.8478 14.6553 23.8871 14.6553C21.4384 14.6553 19.7137 15.8812 19.6988 17.6376C19.6852 18.9357 20.93 19.6598 21.8705 20.0924C22.8348 20.5345 23.1592 20.8182 23.1545 21.2132C23.1485 21.8189 22.3839 22.0958 21.6715 22.0958C20.68 22.0955 20.1529 21.9588 19.3391 21.6215L19.0198 21.4775L18.6719 23.5005C19.2507 23.7528 20.3212 23.9717 21.4324 23.9827C24.0367 23.9821 25.7281 22.7714 25.7471 20.8953C25.7565 19.8674 25.0962 19.0852 23.6666 18.4401C22.8004 18.0226 22.2699 17.7437 22.2756 17.32C22.2756 16.9445 22.725 16.5429 23.6947 16.5429C24.505 16.5302 25.0921 16.7058 25.5497 16.889L25.7714 16.9932L26.108 15.0345Z" fill="#293688"/>
<path d="M30.3304 14.8008C29.7367 14.8008 29.3078 14.9821 29.047 15.5704L25.375 23.8377H27.9983L28.5083 22.4529H31.6424L31.9336 23.8377H34.2657L32.2254 14.801H30.3304L30.3304 14.8008ZM29.2043 20.6447C29.4089 20.1244 30.1911 18.119 30.1911 18.119C30.1769 18.1427 30.3947 17.5961 30.5198 17.2569L30.6875 18.0357C30.6875 18.0357 31.1615 20.1928 31.261 20.645H29.2043V20.6447Z" fill="#293688"/>
<path d="M10.291 20.9952L10.0728 19.7564C9.62056 18.3123 8.21715 16.7498 6.64453 15.967L8.83358 23.8373H11.4574L15.3924 14.8008H12.7692L10.291 20.9952Z" fill="#293688"/>
<path d="M3.95117 14.8008V14.9467C7.06013 15.6944 9.21854 17.5848 10.073 19.7565L9.17465 15.572C9.02468 15.0001 8.57021 14.8207 8.03244 14.8009L3.95117 14.8008Z" fill="#F7981D"/>
<path d="M19.9976 40.0001C27.7167 40.0001 34.4098 35.6245 37.7436 29.2207H2.25195C5.58599 35.6245 12.2788 40.0001 19.9976 40.0001Z" fill="#F7981D"/>
<path d="M19.9995 0C12.4029 0 5.79567 4.2353 2.41016 10.4737H37.5895C34.2036 4.23563 27.5961 0 19.9995 0Z" fill="#293688"/>
</svg>
