<svg width="20" height="20" viewBox="0 0 20 20" fill="none" xmlns="http://www.w3.org/2000/svg">
<g clip-path="url(#clip0)">
<path d="M10 -1.74846e-06C4.47723 -7.82823e-07 7.82809e-07 4.47715 1.74846e-06 10C2.7141e-06 15.5229 4.47723 20 10 20C15.5228 20 20 15.5228 20 10C20 4.47714 15.5228 -2.71409e-06 10 -1.74846e-06ZM13.4563 10.5301L8.45625 13.6551C8.35508 13.7182 8.24004 13.75 8.125 13.75C8.02078 13.75 7.91641 13.7241 7.82196 13.6716C7.62328 13.5614 7.5 13.3523 7.5 13.125L7.5 6.875C7.5 6.64765 7.62328 6.43859 7.82196 6.32844C8.02063 6.21765 8.26356 6.22437 8.45625 6.34492L13.4563 9.46992C13.6389 9.58437 13.75 9.78457 13.75 10C13.75 10.2154 13.6389 10.4157 13.4563 10.5301Z" fill="white"/>
</g>
<defs>
<clipPath id="clip0">
<rect width="20" height="20" fill="white"/>
</clipPath>
</defs>
</svg>
