<svg width="40" height="40" viewBox="0 0 40 40" fill="none" xmlns="http://www.w3.org/2000/svg">
<path d="M20 40C31.0457 40 40 31.0457 40 20C40 8.9543 31.0457 0 20 0C8.9543 0 0 8.9543 0 20C0 31.0457 8.9543 40 20 40Z" fill="#3C80AD"/>
<path d="M13.4611 10.293C8.4143 10.3249 4.32812 14.4397 4.32812 19.5045C4.32812 24.5892 8.44586 28.7155 13.5201 28.7155C15.9003 28.7155 18.0711 27.8062 19.7044 26.3154L19.7041 26.3151H19.7053C20.0404 26.0097 20.3524 25.6794 20.6389 25.3285H18.7561C18.5044 25.0244 18.2758 24.7067 18.0705 24.3792H21.318C21.5163 24.0628 21.6944 23.7341 21.8539 23.3936H17.535C17.3876 23.0772 17.2596 22.7547 17.1507 22.426H22.2382C22.5455 21.5076 22.7113 20.5249 22.7113 19.5045C22.7113 18.8268 22.6377 18.1674 22.4997 17.5313H16.8807C16.9508 17.2039 17.0383 16.8808 17.1425 16.5641H22.2326C22.1189 16.2261 21.9866 15.8974 21.8362 15.5778H17.5344C17.6895 15.2452 17.8654 14.9228 18.0615 14.6101H21.307C21.0907 14.2649 20.8519 13.9353 20.5939 13.6245H18.7844C19.0645 13.2939 19.3721 12.9828 19.7059 12.6945C18.0732 11.203 15.9021 10.2932 13.5206 10.2932C13.4999 10.293 13.4803 10.293 13.4611 10.293Z" fill="#931B1D"/>
<path d="M35.0412 19.5074C35.0421 24.594 30.9292 28.7187 25.8514 28.7202C20.7758 28.7218 16.6597 24.5987 16.6582 19.5112V19.5074C16.6566 14.4192 20.7709 10.2942 25.8474 10.293C30.9235 10.2911 35.04 14.4145 35.0413 19.5023C35.0412 19.5023 35.0412 19.5046 35.0412 19.5074Z" fill="#F16622"/>
<path d="M35.0412 19.6093C35.0421 24.6962 30.9292 28.8216 25.8514 28.8225C20.7758 28.8243 16.6597 24.7007 16.6582 19.6141V19.6093C16.6566 14.5221 20.7709 10.3968 25.8474 10.3955C30.9235 10.3937 35.04 14.517 35.0413 19.6045C35.0412 19.6046 35.0412 19.6075 35.0412 19.6093Z" fill="#F7981D"/>
<path d="M13.4611 10.3966C8.4143 10.4291 4.32812 14.543 4.32812 19.6081C4.32812 24.6932 8.44586 28.8197 13.5201 28.8197C15.9003 28.8197 18.0711 27.9098 19.7044 26.4193L19.7041 26.4184H19.7053C20.0404 26.1133 20.3524 25.7839 20.6389 25.4318H18.7561C18.5044 25.1283 18.2758 24.8112 18.0705 24.4838H21.318C21.5163 24.167 21.6944 23.8373 21.8539 23.4972H17.535C17.3876 23.1805 17.2596 22.8581 17.1507 22.5299H22.2382C22.5455 21.6109 22.7113 20.6285 22.7113 19.6081C22.7113 18.9307 22.6377 18.271 22.4997 17.6353H16.8807C16.9508 17.3082 17.0383 16.9844 17.1425 16.668H22.2326C22.1189 16.3298 21.9866 16.001 21.8362 15.6811H17.5344C17.6895 15.3499 17.8654 15.0262 18.0615 14.7138H21.307C21.0907 14.369 20.8519 14.0396 20.5939 13.7275H18.7844C19.0645 13.3975 19.3721 13.0864 19.7059 12.7975C18.0732 11.3063 15.9021 10.3965 13.5206 10.3965C13.4999 10.3966 13.4803 10.3966 13.4611 10.3966Z" fill="#CB2026"/>
<path d="M16.8276 21.9528L16.9505 21.1194C16.8836 21.1194 16.785 21.1478 16.6982 21.1478C16.3577 21.1478 16.3198 20.9665 16.3419 20.8323L16.617 19.1311H17.1346L17.2597 18.2086H16.7718L16.8713 17.6357H15.8923C15.8711 17.6572 15.3145 20.861 15.3145 21.2504C15.3145 21.828 15.6375 22.0853 16.0941 22.0815C16.4509 22.0782 16.7297 21.9794 16.8276 21.9528Z" fill="white"/>
<path d="M17.1367 20.3638C17.1367 21.7499 18.0491 22.0796 18.8269 22.0796C19.545 22.0796 19.8605 21.9182 19.8605 21.9182L20.0333 20.9721C20.0333 20.9721 19.4873 21.2147 18.994 21.2147C17.9433 21.2147 18.1275 20.429 18.1275 20.429H20.1167C20.1167 20.429 20.2445 19.793 20.2445 19.534C20.2445 18.8882 19.9231 18.1006 18.849 18.1006C17.8647 18.1008 17.1367 19.1628 17.1367 20.3638ZM18.8531 18.9784C19.4052 18.9784 19.3032 19.6005 19.3032 19.6507H18.2168C18.2164 19.5867 18.3191 18.9784 18.8531 18.9784Z" fill="white"/>
<path d="M25.0489 21.9536L25.2242 20.8834C25.2242 20.8834 24.7439 21.1259 24.4145 21.1259C23.7204 21.1259 23.4421 20.5934 23.4421 20.0238C23.4421 18.8654 24.0394 18.2281 24.7048 18.2281C25.2031 18.2281 25.6035 18.5091 25.6035 18.5091L25.763 17.4708C25.763 17.4708 25.1696 17.2295 24.6612 17.2295C23.5313 17.2295 22.4316 18.2107 22.4316 20.0568C22.4316 21.279 23.0256 22.0877 24.1935 22.0877C24.5234 22.0879 25.0489 21.9536 25.0489 21.9536Z" fill="white"/>
<path d="M11.4434 18.1162C10.7723 18.1162 10.2578 18.3319 10.2578 18.3319L10.116 19.177C10.116 19.177 10.5411 19.0046 11.1825 19.0046C11.5469 19.0046 11.8131 19.0454 11.8131 19.3425C11.8131 19.5226 11.7806 19.5891 11.7806 19.5891C11.7806 19.5891 11.4936 19.5648 11.3603 19.5648C10.5143 19.5648 9.625 19.9267 9.625 21.0188C9.625 21.8784 10.2079 22.0761 10.5696 22.0761C11.2602 22.0761 11.5571 21.6273 11.5735 21.6254L11.5413 22.0005H12.4028L12.7874 19.2988C12.7874 18.1531 11.7897 18.1162 11.4434 18.1162ZM11.6534 20.3148C11.672 20.48 11.5498 21.2537 10.9605 21.2537C10.6567 21.2537 10.5774 21.0206 10.5774 20.8829C10.5774 20.6148 10.723 20.2924 11.4405 20.2924C11.6069 20.2924 11.6249 20.3107 11.6534 20.3148Z" fill="white"/>
<path d="M13.7035 22.0551C13.9236 22.0551 15.1837 22.1116 15.1837 20.8086C15.1837 19.5902 14.0175 19.8306 14.0175 19.341C14.0175 19.0982 14.2076 19.0205 14.5549 19.0205C14.6929 19.0205 15.2238 19.0651 15.2238 19.0651L15.3476 18.1985C15.3476 18.1985 15.004 18.1221 14.445 18.1221C13.7203 18.1221 12.986 18.4107 12.986 19.402C12.986 20.5259 14.2113 20.4122 14.2113 20.8853C14.2113 21.2011 13.8687 21.227 13.6047 21.227C13.1487 21.227 12.7378 21.07 12.7359 21.0773L12.6055 21.934C12.6283 21.942 12.8821 22.0551 13.7035 22.0551Z" fill="white"/>
<path d="M33.1553 17.34L32.9447 18.6525C32.9447 18.6525 32.5761 18.1431 31.9998 18.1431C31.1027 18.1431 30.3555 19.2263 30.3555 20.4716C30.3555 21.2753 30.7537 22.062 31.5691 22.062C32.1555 22.062 32.4799 21.6524 32.4799 21.6524L32.4373 22.002H33.3891L34.1372 17.3379L33.1553 17.34ZM32.7012 19.9003C32.7012 20.4179 32.4448 21.1091 31.9145 21.1091C31.562 21.1091 31.3975 20.8129 31.3975 20.348C31.3975 19.5881 31.738 19.0854 32.1674 19.0854C32.5202 19.0855 32.7012 19.3286 32.7012 19.9003Z" fill="white"/>
<path d="M6.14416 22.0051L6.74069 18.4839L6.82754 22.0051H7.50206L8.75985 18.4839L8.20248 22.0051H9.20422L9.97638 17.3359H8.42682L7.46205 20.2003L7.41183 17.3359H5.98406L5.20117 22.0051H6.14416Z" fill="white"/>
<path d="M21.2237 22.0109C21.5085 20.388 21.5613 19.0696 22.2415 19.3099C22.3606 18.6821 22.4752 18.4393 22.6047 18.1731C22.6047 18.1731 22.5441 18.1602 22.4158 18.1602C21.9785 18.1602 21.6534 18.7601 21.6534 18.7601L21.74 18.2094H20.8285L20.2188 22.0109H21.2237Z" fill="white"/>
<path d="M27.3086 18.1162C26.6376 18.1162 26.1234 18.3319 26.1234 18.3319L25.9819 19.177C25.9819 19.177 26.406 19.0046 27.0481 19.0046C27.4122 19.0046 27.679 19.0454 27.679 19.3425C27.679 19.5226 27.6462 19.5891 27.6462 19.5891C27.6462 19.5891 27.3592 19.5648 27.2249 19.5648C26.3785 19.5648 25.4902 19.9267 25.4902 21.0188C25.4902 21.8784 26.0735 22.0761 26.4348 22.0761C27.1255 22.0761 27.4226 21.6273 27.4384 21.6254L27.4065 22.0005H28.2686L28.653 19.2988C28.6533 18.1531 27.656 18.1162 27.3086 18.1162ZM27.5189 20.3148C27.5376 20.48 27.416 21.2537 26.8258 21.2537C26.5223 21.2537 26.4436 21.0206 26.4436 20.8829C26.4436 20.6148 26.5892 20.2924 27.3054 20.2924C27.4728 20.2924 27.4902 20.3107 27.5189 20.3148Z" fill="white"/>
<path d="M29.4384 22.0109C29.7235 20.388 29.7763 19.0696 30.4565 19.3099C30.5755 18.6821 30.6902 18.4393 30.8203 18.1731C30.8203 18.1731 30.7587 18.1602 30.6312 18.1602C30.1925 18.1602 29.8685 18.7601 29.8685 18.7601L29.9557 18.2094H29.0437L28.4336 22.0107H29.4384L29.4384 22.0109Z" fill="white"/>
</svg>
