<svg width="200" height="121" viewBox="0 0 200 121" fill="none" xmlns="http://www.w3.org/2000/svg">
<path d="M27.62 109.406C27.62 109.802 27.818 110 28.214 110H31.832C33.794 110 35.342 109.442 36.512 108.308C37.682 107.174 38.276 105.626 38.276 103.628C38.276 101.648 37.682 100.1 36.512 98.984C35.342 97.85 33.794 97.292 31.832 97.292H28.214C27.818 97.292 27.62 97.49 27.62 97.886V109.406ZM29.384 98.84H31.706C34.604 98.84 36.44 100.586 36.44 103.628C36.44 106.706 34.604 108.452 31.706 108.452H29.384V98.84ZM40.2854 109.406C40.2854 109.802 40.4834 110 40.8794 110H41.4374C41.8334 110 42.0314 109.802 42.0314 109.406V106.238C42.0314 105.248 42.2654 104.384 42.7154 103.646C43.1834 102.89 43.8314 102.512 44.6774 102.512C45.1094 102.512 45.3254 102.314 45.3254 101.918V101.414C45.3254 101.018 45.1274 100.82 44.7494 100.82C43.4534 100.82 42.3914 101.9 41.9594 103.214H41.9234L41.9774 102.53V101.486C41.9774 101.09 41.7794 100.892 41.3834 100.892H40.8794C40.4834 100.892 40.2854 101.09 40.2854 101.486V109.406ZM45.8755 107.516C45.8755 108.326 46.1815 108.992 46.7755 109.478C47.3695 109.964 48.0895 110.216 48.9355 110.216C50.2135 110.216 51.0235 109.532 51.4555 108.974C51.8155 108.542 51.8515 108.398 51.9055 108.308H51.9415L51.8875 108.866V109.406C51.8875 109.802 52.0855 110 52.4815 110H52.9315C53.3275 110 53.5255 109.802 53.5255 109.406V104.24C53.5255 101.936 52.2295 100.676 49.9435 100.676C48.8815 100.676 47.9095 100.928 46.9915 101.45C46.6675 101.63 46.5955 101.9 46.7935 102.26L46.9375 102.512C47.1355 102.818 47.4055 102.89 47.7475 102.728C48.4315 102.35 49.1155 102.152 49.7995 102.152C51.1135 102.152 51.7795 102.818 51.7795 104.15V104.384H51.3115C50.3935 104.384 49.6555 104.42 48.5935 104.69C48.0715 104.816 47.6035 104.978 47.2255 105.194C46.4875 105.608 45.8755 106.436 45.8755 107.516ZM47.6395 107.372C47.6395 106.148 48.8635 105.536 51.3295 105.536H51.7975V105.932C51.7975 106.67 51.5635 107.336 51.0955 107.93C50.6455 108.524 50.0515 108.83 49.3315 108.83C48.2695 108.83 47.6395 108.164 47.6395 107.372ZM56.4343 112.484C56.2723 112.862 56.3803 113.114 56.7403 113.276C57.5143 113.618 58.3963 113.78 59.3863 113.78C60.6283 113.78 61.6903 113.438 62.5723 112.736C63.4543 112.052 63.9043 111.008 63.9043 109.622V101.486C63.9043 101.09 63.7063 100.892 63.3103 100.892H62.8783C62.4823 100.892 62.2843 101.054 62.2843 101.396V101.918C62.2843 102.044 62.3023 102.134 62.3203 102.206H62.2843L62.2123 102.044C62.0323 101.648 61.2043 100.676 59.4403 100.676C58.1623 100.676 57.1543 101.108 56.4343 101.954C55.7323 102.8 55.3723 103.88 55.3723 105.212C55.3723 106.58 55.7503 107.696 56.4883 108.578C57.2263 109.46 58.2343 109.892 59.4763 109.892C60.7183 109.892 61.6183 109.37 62.1763 108.344H62.2123L62.1583 108.92V109.712C62.1583 111.458 60.9703 112.268 59.2963 112.268C58.6843 112.268 58.0183 112.142 57.3163 111.872C56.9743 111.746 56.7223 111.836 56.5603 112.178L56.4343 112.484ZM59.7823 108.38C58.1443 108.38 57.1543 107.102 57.1543 105.14C57.1543 103.322 58.0723 102.188 59.6743 102.188C61.3483 102.188 62.1943 103.214 62.1943 105.266C62.1943 107.444 61.2043 108.38 59.7823 108.38ZM70.2036 107.516C70.2036 108.326 70.5096 108.992 71.1036 109.478C71.6976 109.964 72.4176 110.216 73.2636 110.216C74.5416 110.216 75.3516 109.532 75.7836 108.974C76.1436 108.542 76.1796 108.398 76.2336 108.308H76.2696L76.2156 108.866V109.406C76.2156 109.802 76.4136 110 76.8096 110H77.2596C77.6556 110 77.8536 109.802 77.8536 109.406V104.24C77.8536 101.936 76.5576 100.676 74.2716 100.676C73.2096 100.676 72.2376 100.928 71.3196 101.45C70.9956 101.63 70.9236 101.9 71.1216 102.26L71.2656 102.512C71.4636 102.818 71.7336 102.89 72.0756 102.728C72.7596 102.35 73.4436 102.152 74.1276 102.152C75.4416 102.152 76.1076 102.818 76.1076 104.15V104.384H75.6396C74.7216 104.384 73.9836 104.42 72.9216 104.69C72.3996 104.816 71.9316 104.978 71.5536 105.194C70.8156 105.608 70.2036 106.436 70.2036 107.516ZM71.9676 107.372C71.9676 106.148 73.1916 105.536 75.6576 105.536H76.1256V105.932C76.1256 106.67 75.8916 107.336 75.4236 107.93C74.9736 108.524 74.3796 108.83 73.6596 108.83C72.5976 108.83 71.9676 108.164 71.9676 107.372ZM84.7585 113.006C84.7585 113.402 84.9565 113.6 85.3525 113.6H85.9105C86.2885 113.6 86.4865 113.402 86.4865 113.006V109.388C86.4865 109.082 86.4685 108.812 86.4325 108.596H86.4685L86.5585 108.776C86.7925 109.19 87.6745 110.216 89.2945 110.216C90.5005 110.216 91.4725 109.784 92.2465 108.902C93.0205 108.02 93.4165 106.868 93.4165 105.446C93.4165 104.024 93.0565 102.872 92.3185 101.99C91.5985 101.108 90.6265 100.676 89.4205 100.676C88.0345 100.676 87.2425 101.288 86.7745 101.828C86.4325 102.206 86.4145 102.332 86.3605 102.422H86.3245L86.3605 101.936V101.396C86.3605 101.054 86.1625 100.892 85.7665 100.892H85.3525C84.9565 100.892 84.7585 101.09 84.7585 101.486V113.006ZM86.4505 105.482C86.4505 103.304 87.5845 102.206 89.0785 102.206C90.6085 102.206 91.6525 103.502 91.6525 105.464C91.6525 107.462 90.5185 108.704 89.0245 108.704C88.2325 108.704 87.6025 108.38 87.1345 107.75C86.6845 107.102 86.4505 106.346 86.4505 105.482ZM95.4108 109.406C95.4108 109.802 95.6088 110 96.0048 110H96.5628C96.9408 110 97.1388 109.802 97.1388 109.406V105.68C97.1388 104.69 97.4268 103.88 98.0028 103.25C98.5788 102.602 99.2988 102.278 100.181 102.278C101.531 102.278 101.909 103.106 101.909 104.564V109.406C101.909 109.802 102.107 110 102.503 110H103.061C103.457 110 103.655 109.802 103.655 109.406V104.168C103.655 101.846 102.611 100.676 100.523 100.676C99.6948 100.676 98.9748 100.892 98.3808 101.324C97.7868 101.756 97.3548 102.242 97.1208 102.764H97.0848L97.1388 102.008V97.886C97.1388 97.49 96.9408 97.292 96.5628 97.292H96.0048C95.6088 97.292 95.4108 97.49 95.4108 97.886V109.406ZM110.347 100.676C108.979 100.676 107.827 101.126 106.873 102.026C105.919 102.926 105.451 104.06 105.451 105.428C105.451 106.796 105.919 107.93 106.873 108.848C107.827 109.766 108.979 110.216 110.347 110.216C111.715 110.216 112.867 109.766 113.821 108.848C114.775 107.93 115.261 106.796 115.261 105.428C115.261 104.06 114.793 102.926 113.839 102.026C112.885 101.126 111.733 100.676 110.347 100.676ZM110.347 108.704C109.483 108.704 108.745 108.398 108.133 107.768C107.521 107.138 107.215 106.364 107.215 105.428C107.215 104.492 107.521 103.718 108.133 103.106C108.745 102.494 109.483 102.188 110.347 102.188C111.229 102.188 111.967 102.494 112.561 103.106C113.173 103.718 113.479 104.492 113.479 105.428C113.479 106.382 113.173 107.156 112.561 107.786C111.967 108.398 111.229 108.704 110.347 108.704ZM117.534 106.724C117.534 108.902 118.974 110.072 120.918 110.072C121.404 110.072 121.638 109.874 121.638 109.478V109.1C121.638 108.686 121.494 108.56 121.008 108.506C119.856 108.416 119.28 107.732 119.28 106.454V102.404H120.882C121.26 102.404 121.458 102.206 121.458 101.81V101.576C121.458 101.18 121.26 100.982 120.864 100.982H119.28V98.984C119.28 98.588 119.082 98.39 118.686 98.39H118.164C117.768 98.39 117.57 98.588 117.57 98.984V100.982H116.922C116.526 100.982 116.328 101.18 116.328 101.576V101.81C116.328 102.206 116.526 102.404 116.904 102.404H117.534V106.724ZM127.468 100.676C126.1 100.676 124.948 101.126 123.994 102.026C123.04 102.926 122.572 104.06 122.572 105.428C122.572 106.796 123.04 107.93 123.994 108.848C124.948 109.766 126.1 110.216 127.468 110.216C128.836 110.216 129.988 109.766 130.942 108.848C131.896 107.93 132.382 106.796 132.382 105.428C132.382 104.06 131.914 102.926 130.96 102.026C130.006 101.126 128.854 100.676 127.468 100.676ZM127.468 108.704C126.604 108.704 125.866 108.398 125.254 107.768C124.642 107.138 124.336 106.364 124.336 105.428C124.336 104.492 124.642 103.718 125.254 103.106C125.866 102.494 126.604 102.188 127.468 102.188C128.35 102.188 129.088 102.494 129.682 103.106C130.294 103.718 130.6 104.492 130.6 105.428C130.6 106.382 130.294 107.156 129.682 107.786C129.088 108.398 128.35 108.704 127.468 108.704ZM138.829 109.406C138.829 109.802 139.027 110 139.423 110H139.981C140.359 110 140.557 109.802 140.557 109.406V105.68C140.557 104.69 140.845 103.88 141.421 103.25C141.997 102.602 142.717 102.278 143.599 102.278C144.949 102.278 145.327 103.106 145.327 104.564V109.406C145.327 109.802 145.525 110 145.921 110H146.479C146.875 110 147.073 109.802 147.073 109.406V104.168C147.073 101.846 146.029 100.676 143.941 100.676C143.113 100.676 142.393 100.892 141.799 101.324C141.205 101.756 140.773 102.242 140.539 102.764H140.503L140.557 102.008V97.886C140.557 97.49 140.359 97.292 139.981 97.292H139.423C139.027 97.292 138.829 97.49 138.829 97.886V109.406ZM148.887 105.446C148.887 106.814 149.337 107.948 150.237 108.866C151.137 109.766 152.289 110.216 153.711 110.216C154.845 110.216 155.871 109.892 156.789 109.244C157.113 109.046 157.167 108.794 156.969 108.452L156.807 108.182C156.627 107.858 156.357 107.786 155.997 107.984C155.349 108.47 154.629 108.704 153.819 108.704C152.973 108.704 152.235 108.434 151.641 107.894C151.047 107.336 150.723 106.58 150.669 105.626H156.753C157.113 105.626 157.365 105.356 157.365 105.014C157.365 103.718 157.023 102.674 156.321 101.882C155.637 101.072 154.683 100.676 153.441 100.676C152.127 100.676 151.029 101.108 150.165 101.99C149.319 102.872 148.887 104.024 148.887 105.446ZM150.741 104.474C150.975 102.962 152.055 102.044 153.405 102.044C154.647 102.044 155.565 102.908 155.619 104.474H150.741ZM159.272 109.406C159.272 109.802 159.47 110 159.866 110H160.424C160.82 110 161.018 109.802 161.018 109.406V106.238C161.018 105.248 161.252 104.384 161.702 103.646C162.17 102.89 162.818 102.512 163.664 102.512C164.096 102.512 164.312 102.314 164.312 101.918V101.414C164.312 101.018 164.114 100.82 163.736 100.82C162.44 100.82 161.378 101.9 160.946 103.214H160.91L160.964 102.53V101.486C160.964 101.09 160.766 100.892 160.37 100.892H159.866C159.47 100.892 159.272 101.09 159.272 101.486V109.406ZM164.83 105.446C164.83 106.814 165.28 107.948 166.18 108.866C167.08 109.766 168.232 110.216 169.654 110.216C170.788 110.216 171.814 109.892 172.732 109.244C173.056 109.046 173.11 108.794 172.912 108.452L172.75 108.182C172.57 107.858 172.3 107.786 171.94 107.984C171.292 108.47 170.572 108.704 169.762 108.704C168.916 108.704 168.178 108.434 167.584 107.894C166.99 107.336 166.666 106.58 166.612 105.626H172.696C173.056 105.626 173.308 105.356 173.308 105.014C173.308 103.718 172.966 102.674 172.264 101.882C171.58 101.072 170.626 100.676 169.384 100.676C168.07 100.676 166.972 101.108 166.108 101.99C165.262 102.872 164.83 104.024 164.83 105.446ZM166.684 104.474C166.918 102.962 167.998 102.044 169.348 102.044C170.59 102.044 171.508 102.908 171.562 104.474H166.684Z" fill="#DDDDDD"/>
<rect width="200" height="121" rx="10" fill="#C4C4C4" fill-opacity="0.2"/>
<path d="M143.448 18H56.5517C55.6952 18 55 18.6936 55 19.5517V87.8276C55 88.6857 55.6952 89.3793 56.5517 89.3793H143.448C144.305 89.3793 145 88.6857 145 87.8276V19.5517C145 18.6936 144.305 18 143.448 18ZM141.897 86.2759H58.1034V21.1034H141.897V86.2759Z" fill="#DDDDDD"/>
<path d="M79.8291 52.3515C84.5944 52.3515 88.4706 48.4753 88.4706 43.7115C88.4706 38.9446 84.5944 35.0684 79.8291 35.0684C75.0637 35.0684 71.1875 38.9446 71.1875 43.7099C71.1875 48.4753 75.0637 52.3515 79.8291 52.3515ZM79.8291 38.1718C82.8828 38.1718 85.3672 40.6577 85.3672 43.7099C85.3672 46.7622 82.8828 49.248 79.8291 49.248C76.7753 49.248 74.2909 46.7637 74.2909 43.7115C74.2909 40.6592 76.7753 38.1718 79.8291 38.1718Z" fill="#DDDDDD"/>
<path d="M65.8631 80.0674C66.2262 80.0674 66.5924 79.9402 66.8872 79.6811L92.2005 57.3952L108.186 73.3795C108.793 73.9862 109.774 73.9862 110.381 73.3795C110.987 72.7728 110.987 71.7921 110.381 71.1854L102.921 63.7262L117.168 48.1252L134.642 64.1437C135.273 64.7224 136.256 64.679 136.834 64.0474C137.413 63.4159 137.371 62.4337 136.738 61.8549L118.117 44.7859C117.813 44.5081 117.408 44.37 117 44.3793C116.589 44.398 116.201 44.5795 115.923 44.8837L100.726 61.529L93.3659 54.1692C92.7855 53.5904 91.8576 53.5609 91.2431 54.1009L64.8374 77.3504C64.1934 77.9168 64.1314 78.8974 64.6977 79.5414C65.005 79.8905 65.4333 80.0674 65.8631 80.0674Z" fill="#DDDDDD"/>
</svg>
